<?xml version="1.0" encoding="UTF-8" standalone="no"?>
<!DOCTYPE svg PUBLIC "-//W3C//DTD SVG 1.1//EN"
 "http://www.w3.org/Graphics/SVG/1.1/DTD/svg11.dtd">
<!-- Generated by graphviz version 2.38.0 (20140413.2041)
 -->
<!-- Title: G Pages: 1 -->
<svg width="780pt" height="844pt"
 viewBox="0.00 0.00 780.00 844.00" xmlns="http://www.w3.org/2000/svg" xmlns:xlink="http://www.w3.org/1999/xlink">
<g id="graph0" class="graph" transform="scale(1 1) rotate(0) translate(4 840)">
<title>G</title>
<polygon fill="white" stroke="none" points="-4,4 -4,-840 776,-840 776,4 -4,4"/>
<g id="clust1" class="cluster"><title>cluster_Global</title>
<path fill="none" stroke="gray" d="M20,-44C20,-44 752,-44 752,-44 758,-44 764,-50 764,-56 764,-56 764,-816 764,-816 764,-822 758,-828 752,-828 752,-828 20,-828 20,-828 14,-828 8,-822 8,-816 8,-816 8,-56 8,-56 8,-50 14,-44 20,-44"/>
<text text-anchor="middle" x="386" y="-815.2" font-family="Times,serif" font-size="11.00" fill="gray">Global</text>
</g>
<g id="clust2" class="cluster"><title>cluster_\ImportFrame</title>
<path fill="none" stroke="gray" d="M28,-52C28,-52 744,-52 744,-52 750,-52 756,-58 756,-64 756,-64 756,-788 756,-788 756,-794 750,-800 744,-800 744,-800 28,-800 28,-800 22,-800 16,-794 16,-788 16,-788 16,-64 16,-64 16,-58 22,-52 28,-52"/>
<text text-anchor="middle" x="386" y="-787.2" font-family="Times,serif" font-size="11.00" fill="gray">ImportFrame</text>
</g>
<g id="clust3" class="cluster"><title>cluster_\ImportFrame\Exception</title>
<path fill="none" stroke="gray" d="M36,-72C36,-72 515.5,-72 515.5,-72 521.5,-72 527.5,-78 527.5,-84 527.5,-84 527.5,-132 527.5,-132 527.5,-138 521.5,-144 515.5,-144 515.5,-144 36,-144 36,-144 30,-144 24,-138 24,-132 24,-132 24,-84 24,-84 24,-78 30,-72 36,-72"/>
<text text-anchor="middle" x="275.75" y="-131.2" font-family="Times,serif" font-size="11.00" fill="gray">Exception</text>
</g>
<g id="clust4" class="cluster"><title>cluster_\ImportFrame\Persistence</title>
<path fill="none" stroke="gray" d="M202,-378C202,-378 526,-378 526,-378 532,-378 538,-384 538,-390 538,-390 538,-492 538,-492 538,-498 532,-504 526,-504 526,-504 202,-504 202,-504 196,-504 190,-498 190,-492 190,-492 190,-390 190,-390 190,-384 196,-378 202,-378"/>
<text text-anchor="middle" x="364" y="-491.2" font-family="Times,serif" font-size="11.00" fill="gray">Persistence</text>
</g>
<g id="clust5" class="cluster"><title>cluster_\ImportFrame\Importer</title>
<path fill="none" stroke="gray" d="M419.5,-646C419.5,-646 732.5,-646 732.5,-646 738.5,-646 744.5,-652 744.5,-658 744.5,-658 744.5,-760 744.5,-760 744.5,-766 738.5,-772 732.5,-772 732.5,-772 419.5,-772 419.5,-772 413.5,-772 407.5,-766 407.5,-760 407.5,-760 407.5,-658 407.5,-658 407.5,-652 413.5,-646 419.5,-646"/>
<text text-anchor="middle" x="576" y="-759.2" font-family="Times,serif" font-size="11.00" fill="gray">Importer</text>
</g>
<g id="clust6" class="cluster"><title>cluster_\ImportFrame\Converter</title>
<path fill="none" stroke="gray" d="M416,-512C416,-512 736,-512 736,-512 742,-512 748,-518 748,-524 748,-524 748,-626 748,-626 748,-632 742,-638 736,-638 736,-638 416,-638 416,-638 410,-638 404,-632 404,-626 404,-626 404,-524 404,-524 404,-518 410,-512 416,-512"/>
<text text-anchor="middle" x="576" y="-625.2" font-family="Times,serif" font-size="11.00" fill="gray">Converter</text>
</g>
<g id="clust7" class="cluster"><title>cluster_\ImportFrame\Data</title>
<path fill="none" stroke="gray" d="M648,-399C648,-399 694,-399 694,-399 700,-399 706,-405 706,-411 706,-411 706,-459 706,-459 706,-465 700,-471 694,-471 694,-471 648,-471 648,-471 642,-471 636,-465 636,-459 636,-459 636,-411 636,-411 636,-405 642,-399 648,-399"/>
<text text-anchor="middle" x="671" y="-458.2" font-family="Times,serif" font-size="11.00" fill="gray">Data</text>
</g>
<g id="clust8" class="cluster"><title>cluster_\ImportFrame\Strategy</title>
<path fill="none" stroke="gray" d="M419.5,-286C419.5,-286 709,-286 709,-286 715,-286 721,-292 721,-298 721,-298 721,-346 721,-346 721,-352 715,-358 709,-358 709,-358 419.5,-358 419.5,-358 413.5,-358 407.5,-352 407.5,-346 407.5,-346 407.5,-298 407.5,-298 407.5,-292 413.5,-286 419.5,-286"/>
<text text-anchor="middle" x="564.25" y="-345.2" font-family="Times,serif" font-size="11.00" fill="gray">Strategy</text>
</g>
<g id="clust9" class="cluster"><title>cluster_\ImportFrame\API</title>
<path fill="none" stroke="gray" d="M431,-152C431,-152 716,-152 716,-152 722,-152 728,-158 728,-164 728,-164 728,-266 728,-266 728,-272 722,-278 716,-278 716,-278 431,-278 431,-278 425,-278 419,-272 419,-266 419,-266 419,-164 419,-164 419,-158 425,-152 431,-152"/>
<text text-anchor="middle" x="573.5" y="-265.2" font-family="Times,serif" font-size="11.00" fill="gray">API</text>
</g>
<!-- \\ImportFrame\\Exception\\StrategyException -->
<g id="node1" class="node"><title>\\ImportFrame\\Exception\\StrategyException</title>
<polygon fill="none" stroke="black" points="519.5,-116 388.5,-116 388.5,-80 519.5,-80 519.5,-116"/>
<text text-anchor="middle" x="454" y="-95.2" font-family="Courier,monospace" font-size="11.00">StrategyException</text>
</g>
<!-- \\ImportFrame\\Exception\\ImportException -->
<g id="node2" class="node"><title>\\ImportFrame\\Exception\\ImportException</title>
<polygon fill="none" stroke="black" points="306,-116 188,-116 188,-80 306,-80 306,-116"/>
<text text-anchor="middle" x="247" y="-95.2" font-family="Courier,monospace" font-size="11.00">ImportException</text>
</g>
<!-- \\ImportFrame\\Exception\\StrategyException&#45;&gt;\\ImportFrame\\Exception\\ImportException -->
<g id="edge1" class="edge"><title>\\ImportFrame\\Exception\\StrategyException&#45;&gt;\\ImportFrame\\Exception\\ImportException</title>
<path fill="none" stroke="black" d="M388.418,-98C365.416,-98 339.447,-98 316.154,-98"/>
<polygon fill="none" stroke="black" points="316.008,-94.5001 306.008,-98 316.008,-101.5 316.008,-94.5001"/>
</g>
<!-- \\ImportFrame\\Exception\\IException -->
<g id="node3" class="node"><title>\\ImportFrame\\Exception\\IException</title>
<polygon fill="none" stroke="black" points="116,-116 32,-116 32,-80 116,-80 116,-116"/>
<text text-anchor="middle" x="74" y="-95.2" font-family="Courier,monospace" font-size="11.00">IException</text>
</g>
<!-- \\ImportFrame\\Exception\\ImportException&#45;&gt;\\ImportFrame\\Exception\\IException -->
<g id="edge16" class="edge"><title>\\ImportFrame\\Exception\\ImportException&#45;&gt;\\ImportFrame\\Exception\\IException</title>
<path fill="none" stroke="black" stroke-dasharray="1,5" d="M187.63,-98C167.701,-98 145.578,-98 126.251,-98"/>
<polygon fill="none" stroke="black" points="126.131,-94.5001 116.131,-98 126.131,-101.5 126.131,-94.5001"/>
</g>
<!-- \\Exception -->
<g id="node19" class="node"><title>\\Exception</title>
<ellipse fill="none" stroke="black" cx="74" cy="-18" rx="40.8928" ry="18"/>
<text text-anchor="middle" x="74" y="-14.3" font-family="Times,serif" font-size="14.00" fill="gray">xception</text>
</g>
<!-- \\ImportFrame\\Exception\\ImportException&#45;&gt;\\Exception -->
<g id="edge15" class="edge"><title>\\ImportFrame\\Exception\\ImportException&#45;&gt;\\Exception</title>
<path fill="none" stroke="black" d="M207.197,-79.8468C178.602,-66.4687 139.953,-48.3875 111.834,-35.2322"/>
<polygon fill="none" stroke="black" points="113.272,-32.041 102.731,-30.9736 110.306,-38.3814 113.272,-32.041"/>
</g>
<!-- \\ImportFrame\\Persistence\\Persistence -->
<g id="node4" class="node"><title>\\ImportFrame\\Persistence\\Persistence</title>
<polygon fill="none" stroke="black" points="499.5,-476 408.5,-476 408.5,-440 499.5,-440 499.5,-476"/>
<text text-anchor="start" x="420" y="-461.2" font-family="Courier,monospace" font-size="11.00">«abstract»</text>
<text text-anchor="start" x="416.5" y="-449.2" font-family="Courier,monospace" font-size="11.00">Persistence</text>
</g>
<!-- \\ImportFrame\\Persistence\\IPersistence -->
<g id="node6" class="node"><title>\\ImportFrame\\Persistence\\IPersistence</title>
<polygon fill="none" stroke="black" points="296,-476 198,-476 198,-440 296,-440 296,-476"/>
<text text-anchor="middle" x="247" y="-455.2" font-family="Courier,monospace" font-size="11.00">IPersistence</text>
</g>
<!-- \\ImportFrame\\Persistence\\Persistence&#45;&gt;\\ImportFrame\\Persistence\\IPersistence -->
<g id="edge2" class="edge"><title>\\ImportFrame\\Persistence\\Persistence&#45;&gt;\\ImportFrame\\Persistence\\IPersistence</title>
<path fill="none" stroke="black" stroke-dasharray="1,5" d="M408.265,-458C378.393,-458 338.803,-458 306.446,-458"/>
<polygon fill="none" stroke="black" points="306.216,-454.5 296.216,-458 306.216,-461.5 306.216,-454.5"/>
</g>
<!-- \\ImportFrame\\Persistence\\PersistenceException -->
<g id="node5" class="node"><title>\\ImportFrame\\Persistence\\PersistenceException</title>
<polygon fill="none" stroke="black" points="530,-422 378,-422 378,-386 530,-386 530,-422"/>
<text text-anchor="middle" x="454" y="-401.2" font-family="Courier,monospace" font-size="11.00">PersistenceException</text>
</g>
<!-- \\ImportFrame\\Persistence\\PersistenceException&#45;&gt;\\ImportFrame\\Exception\\ImportException -->
<g id="edge14" class="edge"><title>\\ImportFrame\\Persistence\\PersistenceException&#45;&gt;\\ImportFrame\\Exception\\ImportException</title>
<path fill="none" stroke="black" d="M397.663,-385.982C390.52,-382.114 383.716,-377.493 378,-372 304.507,-301.369 267.824,-180.87 254.307,-126.318"/>
<polygon fill="none" stroke="black" points="257.645,-125.228 251.909,-116.321 250.839,-126.861 257.645,-125.228"/>
</g>
<!-- \\ImportFrame\\Importer\\ImporterException -->
<g id="node7" class="node"><title>\\ImportFrame\\Importer\\ImporterException</title>
<polygon fill="none" stroke="black" points="736.5,-690 605.5,-690 605.5,-654 736.5,-654 736.5,-690"/>
<text text-anchor="middle" x="671" y="-669.2" font-family="Courier,monospace" font-size="11.00">ImporterException</text>
</g>
<!-- \\ImportFrame\\Importer\\ImporterException&#45;&gt;\\ImportFrame\\Exception\\ImportException -->
<g id="edge3" class="edge"><title>\\ImportFrame\\Importer\\ImporterException&#45;&gt;\\ImportFrame\\Exception\\ImportException</title>
<path fill="none" stroke="black" d="M605.312,-673.772C529.703,-674.438 410.73,-670.666 378,-642 357.896,-624.393 276.217,-234.698 253.746,-125.954"/>
<polygon fill="none" stroke="black" points="257.151,-125.136 251.703,-116.049 250.295,-126.55 257.151,-125.136"/>
</g>
<!-- \\ImportFrame\\Importer\\Importer -->
<g id="node8" class="node"><title>\\ImportFrame\\Importer\\Importer</title>
<polygon fill="none" stroke="black" points="706.5,-744 635.5,-744 635.5,-708 706.5,-708 706.5,-744"/>
<text text-anchor="middle" x="671" y="-723.2" font-family="Courier,monospace" font-size="11.00">Importer</text>
</g>
<!-- \\ImportFrame\\Importer\\Importer&#45;&gt;\\ImportFrame\\Persistence\\Persistence -->
<g id="edge12" class="edge"><title>\\ImportFrame\\Importer\\Importer&#45;&gt;\\ImportFrame\\Persistence\\Persistence</title>
<path fill="none" stroke="black" d="M635.454,-718.657C623.512,-714.606 610.908,-708.408 602,-699 540.448,-633.988 594.013,-577.841 538,-508 529.529,-497.438 518.181,-488.575 506.601,-481.387"/>
<polygon fill="none" stroke="black" points="508.146,-478.236 497.745,-476.216 504.616,-484.281 508.146,-478.236"/>
</g>
<!-- \\ImportFrame\\Importer\\IImporter -->
<g id="node9" class="node"><title>\\ImportFrame\\Importer\\IImporter</title>
<polygon fill="none" stroke="black" points="492.5,-729 415.5,-729 415.5,-693 492.5,-693 492.5,-729"/>
<text text-anchor="middle" x="454" y="-708.2" font-family="Courier,monospace" font-size="11.00">IImporter</text>
</g>
<!-- \\ImportFrame\\Importer\\Importer&#45;&gt;\\ImportFrame\\Importer\\IImporter -->
<g id="edge13" class="edge"><title>\\ImportFrame\\Importer\\Importer&#45;&gt;\\ImportFrame\\Importer\\IImporter</title>
<path fill="none" stroke="black" stroke-dasharray="1,5" d="M635.457,-723.59C599.531,-721.084 543.022,-717.141 502.818,-714.336"/>
<polygon fill="none" stroke="black" points="502.933,-710.836 492.713,-713.631 502.446,-717.819 502.933,-710.836"/>
</g>
<!-- \\ImportFrame\\Importer\\IImporter&#45;&gt;\\ImportFrame\\Persistence\\IPersistence -->
<g id="edge19" class="edge"><title>\\ImportFrame\\Importer\\IImporter&#45;&gt;\\ImportFrame\\Persistence\\IPersistence</title>
<path fill="none" stroke="black" d="M417.047,-692.901C403.818,-685.155 389.318,-675.282 378,-664 323.122,-609.295 280.205,-527.37 260.239,-485.213"/>
<polygon fill="none" stroke="black" points="263.395,-483.701 255.996,-476.118 257.052,-486.66 263.395,-483.701"/>
</g>
<!-- \\ImportFrame\\Converter\\Converter -->
<g id="node10" class="node"><title>\\ImportFrame\\Converter\\Converter</title>
<polygon fill="none" stroke="black" points="713,-610 629,-610 629,-574 713,-574 713,-610"/>
<text text-anchor="start" x="637" y="-595.2" font-family="Courier,monospace" font-size="11.00">«abstract»</text>
<text text-anchor="start" x="640.5" y="-583.2" font-family="Courier,monospace" font-size="11.00">Converter</text>
</g>
<!-- \\ImportFrame\\Converter\\Converter&#45;&gt;\\ImportFrame\\Persistence\\Persistence -->
<g id="edge9" class="edge"><title>\\ImportFrame\\Converter\\Converter&#45;&gt;\\ImportFrame\\Persistence\\Persistence</title>
<path fill="none" stroke="black" d="M628.964,-578.391C619.792,-574.624 610.324,-570.135 602,-565 569.583,-545 568.668,-530.591 538,-508 525.112,-498.506 510.337,-489.162 496.859,-481.168"/>
<polygon fill="none" stroke="black" points="498.622,-478.144 488.222,-476.121 495.091,-484.188 498.622,-478.144"/>
</g>
<!-- \\ImportFrame\\Converter\\IConverter -->
<g id="node12" class="node"><title>\\ImportFrame\\Converter\\IConverter</title>
<polygon fill="none" stroke="black" points="496,-583 412,-583 412,-547 496,-547 496,-583"/>
<text text-anchor="middle" x="454" y="-562.2" font-family="Courier,monospace" font-size="11.00">IConverter</text>
</g>
<!-- \\ImportFrame\\Converter\\Converter&#45;&gt;\\ImportFrame\\Converter\\IConverter -->
<g id="edge10" class="edge"><title>\\ImportFrame\\Converter\\Converter&#45;&gt;\\ImportFrame\\Converter\\IConverter</title>
<path fill="none" stroke="black" stroke-dasharray="1,5" d="M628.8,-586.826C593.915,-582.445 543.748,-576.145 506.271,-571.439"/>
<polygon fill="none" stroke="black" points="506.419,-567.93 496.06,-570.156 505.546,-574.875 506.419,-567.93"/>
</g>
<!-- \\ImportFrame\\Converter\\ConverterException -->
<g id="node11" class="node"><title>\\ImportFrame\\Converter\\ConverterException</title>
<polygon fill="none" stroke="black" points="740,-556 602,-556 602,-520 740,-520 740,-556"/>
<text text-anchor="middle" x="671" y="-535.2" font-family="Courier,monospace" font-size="11.00">ConverterException</text>
</g>
<!-- \\ImportFrame\\Converter\\ConverterException&#45;&gt;\\ImportFrame\\Exception\\ImportException -->
<g id="edge11" class="edge"><title>\\ImportFrame\\Converter\\ConverterException&#45;&gt;\\ImportFrame\\Exception\\ImportException</title>
<path fill="none" stroke="black" d="M647.475,-519.738C633.513,-507.813 615.693,-491.451 602,-475 568.002,-434.156 583.569,-401.342 538,-374 507.426,-355.655 407.547,-381.957 378,-362 295.272,-306.123 263.095,-181.733 252.497,-125.978"/>
<polygon fill="none" stroke="black" points="255.933,-125.308 250.709,-116.09 249.045,-126.553 255.933,-125.308"/>
</g>
<!-- \\ImportFrame\\Converter\\IConverter&#45;&gt;\\ImportFrame\\Persistence\\IPersistence -->
<g id="edge17" class="edge"><title>\\ImportFrame\\Converter\\IConverter&#45;&gt;\\ImportFrame\\Persistence\\IPersistence</title>
<path fill="none" stroke="black" d="M418.225,-546.849C383.367,-528.655 329.596,-500.589 291.837,-480.881"/>
<polygon fill="none" stroke="black" points="293.088,-477.586 282.603,-476.061 289.849,-483.791 293.088,-477.586"/>
</g>
<!-- \\ImportFrame\\Data\\IData -->
<g id="node13" class="node"><title>\\ImportFrame\\Data\\IData</title>
<polygon fill="none" stroke="black" points="698,-443 644,-443 644,-407 698,-407 698,-443"/>
<text text-anchor="middle" x="671" y="-422.2" font-family="Courier,monospace" font-size="11.00">IData</text>
</g>
<!-- \\ImportFrame\\Strategy\\Strategy -->
<g id="node14" class="node"><title>\\ImportFrame\\Strategy\\Strategy</title>
<polygon fill="none" stroke="black" points="713,-330 629,-330 629,-294 713,-294 713,-330"/>
<text text-anchor="start" x="637" y="-315.2" font-family="Courier,monospace" font-size="11.00">«abstract»</text>
<text text-anchor="start" x="643.5" y="-303.2" font-family="Courier,monospace" font-size="11.00">Strategy</text>
</g>
<!-- \\ImportFrame\\Strategy\\Strategy&#45;&gt;\\ImportFrame\\Persistence\\Persistence -->
<g id="edge4" class="edge"><title>\\ImportFrame\\Strategy\\Strategy&#45;&gt;\\ImportFrame\\Persistence\\Persistence</title>
<path fill="none" stroke="black" d="M654.336,-330.32C631.301,-356.194 585.817,-403.362 538,-431 529.052,-436.172 518.981,-440.504 509.02,-444.077"/>
<polygon fill="none" stroke="black" points="507.901,-440.761 499.544,-447.273 510.138,-447.394 507.901,-440.761"/>
</g>
<!-- \\ImportFrame\\Strategy\\IStrategy -->
<g id="node15" class="node"><title>\\ImportFrame\\Strategy\\IStrategy</title>
<polygon fill="none" stroke="black" points="492.5,-330 415.5,-330 415.5,-294 492.5,-294 492.5,-330"/>
<text text-anchor="middle" x="454" y="-309.2" font-family="Courier,monospace" font-size="11.00">IStrategy</text>
</g>
<!-- \\ImportFrame\\Strategy\\Strategy&#45;&gt;\\ImportFrame\\Strategy\\IStrategy -->
<g id="edge5" class="edge"><title>\\ImportFrame\\Strategy\\Strategy&#45;&gt;\\ImportFrame\\Strategy\\IStrategy</title>
<path fill="none" stroke="black" stroke-dasharray="1,5" d="M628.8,-312C592.912,-312 540.851,-312 503.07,-312"/>
<polygon fill="none" stroke="black" points="502.818,-308.5 492.818,-312 502.818,-315.5 502.818,-308.5"/>
</g>
<!-- \\ImportFrame\\Strategy\\IStrategy&#45;&gt;\\ImportFrame\\Persistence\\IPersistence -->
<g id="edge18" class="edge"><title>\\ImportFrame\\Strategy\\IStrategy&#45;&gt;\\ImportFrame\\Persistence\\IPersistence</title>
<path fill="none" stroke="black" d="M427.451,-330.196C390.676,-356.387 322.758,-404.758 281.847,-433.894"/>
<polygon fill="none" stroke="black" points="279.663,-431.153 273.548,-439.805 283.724,-436.855 279.663,-431.153"/>
</g>
<!-- \\ImportFrame\\API\\API -->
<g id="node16" class="node"><title>\\ImportFrame\\API\\API</title>
<polygon fill="none" stroke="black" points="713,-250 629,-250 629,-214 713,-214 713,-250"/>
<text text-anchor="start" x="637" y="-235.2" font-family="Courier,monospace" font-size="11.00">«abstract»</text>
<text text-anchor="start" x="660.5" y="-223.2" font-family="Courier,monospace" font-size="11.00">API</text>
</g>
<!-- \\ImportFrame\\API\\API&#45;&gt;\\ImportFrame\\Persistence\\Persistence -->
<g id="edge6" class="edge"><title>\\ImportFrame\\API\\API&#45;&gt;\\ImportFrame\\Persistence\\Persistence</title>
<path fill="none" stroke="black" d="M638.312,-250.154C625.736,-258.572 611.934,-269.493 602,-282 557.174,-338.437 591.233,-382.413 538,-431 529.86,-438.43 519.645,-443.818 509.191,-447.723"/>
<polygon fill="none" stroke="black" points="507.968,-444.442 499.577,-450.91 510.17,-451.086 507.968,-444.442"/>
</g>
<!-- \\ImportFrame\\API\\IAPI -->
<g id="node18" class="node"><title>\\ImportFrame\\API\\IAPI</title>
<polygon fill="none" stroke="black" points="481,-250 427,-250 427,-214 481,-214 481,-250"/>
<text text-anchor="middle" x="454" y="-229.2" font-family="Courier,monospace" font-size="11.00">IAPI</text>
</g>
<!-- \\ImportFrame\\API\\API&#45;&gt;\\ImportFrame\\API\\IAPI -->
<g id="edge7" class="edge"><title>\\ImportFrame\\API\\API&#45;&gt;\\ImportFrame\\API\\IAPI</title>
<path fill="none" stroke="black" stroke-dasharray="1,5" d="M628.8,-232C589.012,-232 529.342,-232 491.296,-232"/>
<polygon fill="none" stroke="black" points="491.173,-228.5 481.173,-232 491.173,-235.5 491.173,-228.5"/>
</g>
<!-- \\ImportFrame\\API\\APIException -->
<g id="node17" class="node"><title>\\ImportFrame\\API\\APIException</title>
<polygon fill="none" stroke="black" points="720,-196 622,-196 622,-160 720,-160 720,-196"/>
<text text-anchor="middle" x="671" y="-175.2" font-family="Courier,monospace" font-size="11.00">APIException</text>
</g>
<!-- \\ImportFrame\\API\\APIException&#45;&gt;\\ImportFrame\\Exception\\ImportException -->
<g id="edge8" class="edge"><title>\\ImportFrame\\API\\APIException&#45;&gt;\\ImportFrame\\Exception\\ImportException</title>
<path fill="none" stroke="black" d="M655.24,-159.998C632.976,-134.431 588.05,-88.7376 538,-71 463.056,-44.4399 370.764,-60.6955 310.712,-77.1892"/>
<polygon fill="none" stroke="black" points="309.661,-73.8491 300.991,-79.9387 311.566,-80.5849 309.661,-73.8491"/>
</g>
<!-- \\ImportFrame\\API\\IAPI&#45;&gt;\\ImportFrame\\Persistence\\IPersistence -->
<g id="edge20" class="edge"><title>\\ImportFrame\\API\\IAPI&#45;&gt;\\ImportFrame\\Persistence\\IPersistence</title>
<path fill="none" stroke="black" d="M426.73,-246.425C411.544,-255.486 392.614,-268.073 378,-282 329.325,-328.385 285.813,-394.764 263.593,-431.315"/>
<polygon fill="none" stroke="black" points="260.564,-429.56 258.412,-439.934 266.564,-433.166 260.564,-429.56"/>
</g>
</g>
</svg>
